<svg xmlns="http://www.w3.org/2000/svg" width="167" height="28" fill="none"><path fill="#fff" d="M44.95 21.939c5.362 0 8.579-2.55 8.579-6.816v-.405h-5.005v.405c0 1.811-.857 2.526-3.503 2.526-3.24 0-4.122-.762-4.122-3.932s.881-3.932 4.122-3.932c2.646 0 3.504.715 3.504 2.526v.405h5.004v-.405c0-4.265-3.217-6.815-8.58-6.815-5.552 0-8.816 3.24-8.816 8.221 0 4.98 3.264 8.222 8.817 8.222ZM59.19 21.7v-6.005h7.435v6.006h4.48V5.734h-4.48v5.934H59.19V5.734h-4.48v15.967h4.48ZM76.61 21.7l1.24-2.954h7.578l1.216 2.955h5.147L84.88 5.734h-6.41l-6.888 15.967h5.029Zm3.861-9.222 1.025-2.693h.31l1.048 2.693.93 2.24h-4.242l.93-2.24ZM96.75 21.7V5.735h-4.48v15.967h4.48ZM102.662 21.7v-6.243l-.191-3.05h.31l2.026 3.145 4.718 6.149h4.766V5.734h-4.48v6.172l.214 3.48h-.309l-2.336-3.67-4.432-5.982h-4.766v15.967h4.48ZM120.209 21.7v-5.552h9.437v-4.004h-9.437V9.761h9.794V5.734h-14.274v15.967h4.48ZM144.884 21.7v-4.027h-9.222V5.734h-4.481v15.967h13.703ZM150.556 21.7V5.735h-4.48v15.967h4.48ZM156.467 21.7v-4.027h4.361c3.789 0 6.172-2.192 6.172-5.981 0-3.79-2.383-5.958-6.172-5.958h-8.841v15.967h4.48Zm3.86-11.939c1.573 0 2.217.31 2.217 1.93 0 1.645-.644 1.955-2.217 1.955h-3.86V9.76h3.86Z"></path><g clip-path="url(#chainflip-logo_svg__a)"><path fill="url(#chainflip-logo_svg__b)" d="M28.413.072v12.097c0 2.15-.68 4.234-1.908 5.947a9.91 9.91 0 0 1-1.295 1.479l-.033.017h-5.676V8.405H3.22l.066-.067 4.448-4.183 1.643-1.53C11.236.879 13.527.073 16.05.073h12.364Z"></path><path fill="url(#chainflip-logo_svg__c)" d="m25.177 19.628-.017.017-.016.017-.299.286-1.128 1.075-4.1 3.847-.398.37a9.989 9.989 0 0 1-6.805 2.671H0v-5.41l.017-2.89.033-3.847a10.208 10.208 0 0 1 3.186-7.376h5.261v11.224h16.68v.016Z"></path></g><defs><linearGradient id="chainflip-logo_svg__b" x1="16.413" x2="14.784" y1="-1.121" y2="29.58" gradientUnits="userSpaceOnUse"><stop stop-color="#48EF8A"></stop><stop offset="0.546" stop-color="#43B4A6"></stop><stop offset="0.692" stop-color="#2D796F"></stop><stop offset="0.966"></stop></linearGradient><linearGradient id="chainflip-logo_svg__c" x1="13.338" x2="9.062" y1="29.434" y2="-2.026" gradientUnits="userSpaceOnUse"><stop stop-color="#FF5F96"></stop><stop offset="0.61" stop-color="#FF33AF"></stop><stop offset="1"></stop></linearGradient><clipPath id="chainflip-logo_svg__a"><path fill="#fff" d="M0 .072h28.413v27.856H0z"></path></clipPath></defs></svg>